# xmcd CD database file
#
# Track frame offsets:
#	150
#	18055
#	34665
#	54155
#	83195
#	107773
#	129923
#	153028
#	174883
#	195053
#	218820
#	241565
#	251698
#	266350
#	284790
#	300643
#	325670
#
# Disc length: 4466 seconds
#
# Revision: 3
# Processed by: cddbd v1.5.2PL0 Copyright (c) Steve Scherf et al.
# Submitted via: CDex 1.51
#
DISCID=c7117011
DTITLE=Roffe Wikström - Som Vattnet Flyter I Floden 
DYEAR=1993
DGENRE=Blues
TTITLE0=Mitt Hjärta Är Ditt
TTITLE1=En Liten Konstnär
TTITLE2=Stjärnorna Kvittar Det Lika
TTITLE3=Blås Ut Mitt Månljus
TTITLE4=Gråta Över Spilld Mjölk
TTITLE5=Vi Skall Bygga Upp En Kyrka
TTITLE6=Jag Älskar Dig Ändå
TTITLE7=Himlen Är Blå
TTITLE8=Murar
TTITLE9=Så Långt Från Den Jag Älskar
TTITLE10=Fast I En Dröm
TTITLE11=Mamma Älskar Pappa
TTITLE12=Gamle Lightnin'
TTITLE13=Kom Till Mej Kvinna
TTITLE14=Hej Å Hå
TTITLE15=Jag Tror Jag Kommer Bli Galen
TTITLE16=Som Ett Fladdrande Ljus
EXTD=YEAR: 1993
EXTT0=
EXTT1=
EXTT2=
EXTT3=
EXTT4=
EXTT5=
EXTT6=
EXTT7=
EXTT8=
EXTT9=
EXTT10=
EXTT11=
EXTT12=
EXTT13=
EXTT14=
EXTT15=
EXTT16=
PLAYORDER=
